<svg xmlns="http://www.w3.org/2000/svg" viewBox="0 0 100 100" fill="none">
  <!-- Agent (机器人头部) -->
  <rect x="35" y="25" width="30" height="25" rx="5" stroke="#8b5cf6" stroke-width="3" fill="none"/>
  
  <!-- 眼睛 -->
  <circle cx="43" cy="35" r="3" fill="#8b5cf6"/>
  <circle cx="57" cy="35" r="3" fill="#8b5cf6"/>
  
  <!-- 嘴巴 (微笑) -->
  <path d="M 43 43 Q 50 47 57 43" stroke="#8b5cf6" stroke-width="2" fill="none" stroke-linecap="round"/>
  
  <!-- 环境 (圆形边界) -->
  <circle cx="50" cy="50" r="35" stroke="#8b5cf6" stroke-width="2.5" fill="none" stroke-dasharray="5,3" opacity="0.6"/>
  
  <!-- 动作箭头 (向右) -->
  <path d="M 65 50 L 75 50 M 72 47 L 75 50 L 72 53" stroke="#8b5cf6" stroke-width="2.5" stroke-linecap="round" stroke-linejoin="round"/>
  
  <!-- 奖励符号 (星星) -->
  <path d="M 80 30 L 82 36 L 88 36 L 83 40 L 85 46 L 80 42 L 75 46 L 77 40 L 72 36 L 78 36 Z" fill="#8b5cf6" opacity="0.7"/>
  
  <!-- 状态点 -->
  <circle cx="20" cy="60" r="4" fill="#8b5cf6" opacity="0.5"/>
  <circle cx="30" cy="75" r="4" fill="#8b5cf6" opacity="0.5"/>
  <circle cx="70" cy="75" r="4" fill="#8b5cf6" opacity="0.5"/>
  
  <!-- 反馈箭头 (向左下) -->
  <path d="M 35 55 L 28 62 M 30 59 L 28 62 L 31 64" stroke="#8b5cf6" stroke-width="2" stroke-linecap="round" stroke-linejoin="round" opacity="0.6"/>
</svg>
